#VRML V2.0 utf8
# Generated by VRML 2.0 driver of GEANT4


#---------- CAMERA
Viewpoint {
	position 0 0 508.013
}

#---------- SOLID: Target:0
	Shape {
		appearance Appearance {
			material Material {
				diffuseColor 1 0 0
			}
		}
		geometry IndexedFaceSet {
			coord Coordinate {
				point [
					-50 -50 -50,
					50 -50 -50,
					50 50 -50,
					-50 50 -50,
					-50 -50 50,
					50 -50 50,
					50 50 50,
					-50 50 50,
				]
			}
			coordIndex [
				0, 3, 2, 1, -1,
				4, 7, 3, 0, -1,
				7, 6, 2, 3, -1,
				6, 5, 1, 2, -1,
				5, 4, 0, 1, -1,
				4, 5, 6, 7, -1,
			]
			solid FALSE
		}
	}
#---------- SOLID: Axes
	Shape {
		appearance Appearance {
			material Material {
				diffuseColor 1 1 1
			}
		}
		geometry IndexedFaceSet {
			coord Coordinate {
				point [
					193.505 0 -0.721688,
					193.505 0.625 -0.360844,
					193.505 0.625 0.360844,
					193.505 8.83813e-17 0.721688,
					193.505 -0.625 0.360844,
					193.505 -0.625 -0.360844,
					0 0 -0.721688,
					0 0.625 -0.360844,
					0 0.625 0.360844,
					0 8.83813e-17 0.721688,
					0 -0.625 0.360844,
					0 -0.625 -0.360844,
					193.505 0 5.72552e-15,
					0 0 -6.12323e-15,
				]
			}
			coordIndex [
				0, 6, 7, 1, -1,
				1, 7, 8, 2, -1,
				2, 8, 9, 3, -1,
				3, 9, 10, 4, -1,
				4, 10, 11, 5, -1,
				5, 11, 6, 0, -1,
				12, 0, 1, -1,
				12, 1, 2, -1,
				12, 2, 3, -1,
				12, 3, 4, -1,
				12, 4, 5, -1,
				12, 5, 0, -1,
				6, 13, 7, -1,
				7, 13, 8, -1,
				8, 13, 9, -1,
				9, 13, 10, -1,
				10, 13, 11, -1,
				11, 13, 6, -1,
			]
			solid FALSE
		}
	}
#---------- SOLID: Axes
	Shape {
		appearance Appearance {
			material Material {
				diffuseColor 1 1 1
			}
		}
		geometry IndexedFaceSet {
			coord Coordinate {
				point [
					200 0 6.12323e-15,
					193.505 2.16506 5.72552e-15,
					193.505 -1.08253 -1.875,
					193.505 -1.08253 1.875,
				]
			}
			coordIndex [
				0, 2, 1, -1,
				0, 3, 2, -1,
				0, 1, 3, -1,
				1, 2, 3, -1,
			]
			solid FALSE
		}
	}
#---------- SOLID: Axes
	Shape {
		appearance Appearance {
			material Material {
				diffuseColor 1 1 1
			}
		}
		geometry IndexedFaceSet {
			coord Coordinate {
				point [
					5.72552e-15 193.505 -0.721688,
					-0.625 193.505 -0.360844,
					-0.625 193.505 0.360844,
					5.63714e-15 193.505 0.721688,
					0.625 193.505 0.360844,
					0.625 193.505 -0.360844,
					-6.12323e-15 0 -0.721688,
					-0.625 0 -0.360844,
					-0.625 0 0.360844,
					-6.21162e-15 0 0.721688,
					0.625 0 0.360844,
					0.625 0 -0.360844,
					5.72552e-15 193.505 5.72552e-15,
					-6.12323e-15 0 -6.12323e-15,
				]
			}
			coordIndex [
				0, 6, 7, 1, -1,
				1, 7, 8, 2, -1,
				2, 8, 9, 3, -1,
				3, 9, 10, 4, -1,
				4, 10, 11, 5, -1,
				5, 11, 6, 0, -1,
				12, 0, 1, -1,
				12, 1, 2, -1,
				12, 2, 3, -1,
				12, 3, 4, -1,
				12, 4, 5, -1,
				12, 5, 0, -1,
				6, 13, 7, -1,
				7, 13, 8, -1,
				8, 13, 9, -1,
				9, 13, 10, -1,
				10, 13, 11, -1,
				11, 13, 6, -1,
			]
			solid FALSE
		}
	}
#---------- SOLID: Axes
	Shape {
		appearance Appearance {
			material Material {
				diffuseColor 1 1 1
			}
		}
		geometry IndexedFaceSet {
			coord Coordinate {
				point [
					6.12323e-15 200 6.12323e-15,
					-2.16506 193.505 5.72552e-15,
					1.08253 193.505 -1.875,
					1.08253 193.505 1.875,
				]
			}
			coordIndex [
				0, 2, 1, -1,
				0, 3, 2, -1,
				0, 1, 3, -1,
				1, 2, 3, -1,
			]
			solid FALSE
		}
	}
#---------- SOLID: Axes
	Shape {
		appearance Appearance {
			material Material {
				diffuseColor 1 1 1
			}
		}
		geometry IndexedFaceSet {
			coord Coordinate {
				point [
					0.721688 0 193.505,
					0.360844 0.625 193.505,
					-0.360844 0.625 193.505,
					-0.721688 8.83813e-17 193.505,
					-0.360844 -0.625 193.505,
					0.360844 -0.625 193.505,
					0.721688 0 0,
					0.360844 0.625 0,
					-0.360844 0.625 0,
					-0.721688 8.83813e-17 0,
					-0.360844 -0.625 0,
					0.360844 -0.625 0,
					0 0 193.505,
					0 0 0,
				]
			}
			coordIndex [
				0, 6, 7, 1, -1,
				1, 7, 8, 2, -1,
				2, 8, 9, 3, -1,
				3, 9, 10, 4, -1,
				4, 10, 11, 5, -1,
				5, 11, 6, 0, -1,
				12, 0, 1, -1,
				12, 1, 2, -1,
				12, 2, 3, -1,
				12, 3, 4, -1,
				12, 4, 5, -1,
				12, 5, 0, -1,
				6, 13, 7, -1,
				7, 13, 8, -1,
				8, 13, 9, -1,
				9, 13, 10, -1,
				10, 13, 11, -1,
				11, 13, 6, -1,
			]
			solid FALSE
		}
	}
#---------- SOLID: Axes
	Shape {
		appearance Appearance {
			material Material {
				diffuseColor 1 1 1
			}
		}
		geometry IndexedFaceSet {
			coord Coordinate {
				point [
					0 0 200,
					0 2.16506 193.505,
					1.875 -1.08253 193.505,
					-1.875 -1.08253 193.505,
				]
			}
			coordIndex [
				0, 2, 1, -1,
				0, 3, 2, -1,
				0, 1, 3, -1,
				1, 2, 3, -1,
			]
			solid FALSE
		}
	}
#---------- POLYLINE
Shape {
	appearance Appearance {
		material Material {
			diffuseColor 0 1 0
			emissiveColor 0 1 0
		}
	}
	geometry IndexedLineSet {
		coord Coordinate {
			point [
				0 0 -200,
				0 0 -50,
				0 0 50,
				0 0 500,
			]
		}
		coordIndex [
			0, 1, 2, 3, -1
		]
	}
}
#End of file.
